<?xml version="1.0" encoding="iso-8859-1"?>
<!-- Generator: Adobe Illustrator 19.0.0, SVG Export Plug-In . SVG Version: 6.00 Build 0)  -->
<svg version="1.1" id="Capa_1" xmlns="http://www.w3.org/2000/svg" xmlns:xlink="http://www.w3.org/1999/xlink" x="0px" y="0px"
	 viewBox="0 0 512 512" style="enable-background:new 0 0 512 512;" xml:space="preserve">
<path style="fill:#9A9B9D;" d="M265.86,0h-19.72c-8.148,0-14.753,6.606-14.753,14.753v38.189h49.226V14.753
	C280.614,6.606,274.008,0,265.86,0z"/>
<path style="fill:#B3B5B7;" d="M361.901,31.074H150.1c-12.297,0-22.266,9.969-22.266,22.266v14.839l128.167,20.805l128.167-20.805
	V53.341C384.167,41.043,374.198,31.074,361.901,31.074z"/>
<path style="fill:#9A9B9D;" d="M169.041,68.179V53.341c0-12.297,9.969-22.266,22.266-22.266H150.1
	c-12.297,0-22.266,9.969-22.266,22.266v14.839l128.167,20.805l20.604-3.345L169.041,68.179z"/>
<path style="fill:#E3E6E8;" d="M384.167,68.179H127.834c-10.869,0-19.681,8.811-19.681,19.681v21.927l147.847,26.099l147.847-26.099
	V87.86C403.848,76.991,395.037,68.179,384.167,68.179z"/>
<path style="fill:#B3B5B7;" d="M149.36,109.787V87.86c0-10.869,8.811-19.681,19.681-19.681h-41.207
	c-10.869,0-19.681,8.811-19.681,19.681v21.927l147.847,26.099l20.604-3.637L149.36,109.787z"/>
<path style="fill:#96D7E8;" d="M403.848,109.787L403.848,109.787H108.153l0,0c-30.134,23.329-47.773,59.292-47.773,97.401v249.759
	c0,30.405,24.648,55.053,55.053,55.053h281.133c30.405,0,55.053-24.648,55.053-55.053V207.189
	C451.621,169.079,433.982,133.117,403.848,109.787z"/>
<path style="fill:#68C9E0;" d="M101.588,456.947V207.189c0-38.108,17.639-74.072,47.773-97.401l0,0h-41.207l0,0
	c-30.134,23.329-47.773,59.292-47.773,97.401v249.758c0,30.405,24.648,55.053,55.053,55.053h41.207
	C126.236,512,101.588,487.352,101.588,456.947z"/>
<g>
	<path style="fill:#3B484A;" d="M174.835,195.259c-4.267,0-7.726-3.459-7.726-7.726v-14.689c0-4.267,3.459-7.726,7.726-7.726
		c4.267,0,7.726,3.459,7.726,7.726v14.689C182.561,191.8,179.102,195.259,174.835,195.259z"/>
	<path style="fill:#3B484A;" d="M337.166,195.259c-4.267,0-7.726-3.459-7.726-7.726v-14.689c0-4.267,3.459-7.726,7.726-7.726
		s7.726,3.459,7.726,7.726v14.689C344.893,191.8,341.433,195.259,337.166,195.259z"/>
	<path style="fill:#3B484A;" d="M256.001,206.116c-11.822,0-22.914-4.932-30.432-13.531c-2.808-3.213-2.481-8.094,0.732-10.902
		c3.213-2.808,8.094-2.48,10.902,0.732c4.582,5.242,11.433,8.249,18.797,8.249c7.363,0,14.213-3.006,18.796-8.249
		c2.809-3.212,7.69-3.541,10.902-0.732c3.213,2.808,3.541,7.689,0.732,10.902C278.915,201.184,267.823,206.116,256.001,206.116z"/>
</g>
<path style="fill:#CE9964;" d="M393.292,280.443c-2.244-3.019-4.131-6.287-5.624-9.74c-6.106-14.124-18.518-24.538-33.487-28.099
	c-3.659-0.87-7.206-2.161-10.569-3.847c-13.756-6.894-29.959-6.894-43.715,0c-3.363,1.685-6.909,2.976-10.569,3.847
	c-14.97,3.56-27.381,13.975-33.487,28.099c-1.493,3.452-3.38,6.721-5.624,9.74c-9.178,12.35-11.992,28.306-7.591,43.05
	c1.076,3.605,1.731,7.322,1.953,11.077c0.908,15.36,9.009,29.392,21.857,37.858l0,0c3.141,2.07,6.032,4.496,8.615,7.23
	c10.569,11.184,25.794,16.725,41.078,14.951l0,0c3.736-0.434,7.51-0.434,11.246,0l0,0c15.285,1.774,30.51-3.767,41.078-14.951
	c2.584-2.734,5.474-5.16,8.615-7.23l0,0c12.848-8.466,20.95-22.497,21.857-37.858l0,0c0.221-3.755,0.877-7.472,1.953-11.077
	C405.283,308.749,402.47,292.793,393.292,280.443z"/>
<path style="fill:#DDA46C;" d="M118.709,280.443c2.244-3.019,4.131-6.287,5.624-9.74c6.106-14.124,18.518-24.538,33.487-28.099
	c3.659-0.87,7.206-2.161,10.569-3.847c13.756-6.894,29.959-6.894,43.715,0c3.363,1.685,6.909,2.976,10.569,3.847
	c14.97,3.56,27.381,13.975,33.487,28.099c1.493,3.452,3.38,6.721,5.624,9.74c9.178,12.35,11.992,28.306,7.591,43.05
	c-1.076,3.605-1.731,7.322-1.953,11.077c-0.908,15.36-9.009,29.392-21.857,37.858l0,0c-3.141,2.07-6.032,4.496-8.615,7.23
	c-10.569,11.184-25.794,16.725-41.078,14.951l0,0c-3.736-0.434-7.51-0.434-11.246,0l0,0c-15.285,1.774-30.51-3.767-41.078-14.951
	c-2.584-2.734-5.474-5.16-8.615-7.23l0,0c-12.848-8.466-20.95-22.497-21.857-37.858l0,0c-0.221-3.755-0.877-7.472-1.953-11.077
	C106.718,308.749,109.531,292.793,118.709,280.443z"/>
<path style="fill:#CE9964;" d="M235.069,369.828c-2.244-3.019-4.131-6.287-5.624-9.74c-6.106-14.124-18.518-24.538-33.487-28.099
	c-3.659-0.87-7.206-2.161-10.569-3.847c-13.756-6.894-29.959-6.894-43.715,0c-3.363,1.685-6.909,2.976-10.569,3.847
	c-14.97,3.56-27.381,13.975-33.487,28.099c-1.493,3.452-3.38,6.721-5.624,9.74c-9.178,12.35-11.992,28.306-7.591,43.05
	c1.076,3.605,1.732,7.322,1.953,11.077c0.908,15.36,9.009,29.392,21.857,37.858l0,0c3.141,2.07,6.032,4.496,8.615,7.23
	c10.569,11.184,25.794,16.725,41.078,14.951l0,0c3.736-0.434,7.51-0.434,11.246,0l0,0c15.285,1.774,30.51-3.767,41.078-14.951
	c2.584-2.734,5.474-5.16,8.615-7.23l0,0c12.848-8.466,20.95-22.497,21.857-37.858l0,0c0.221-3.755,0.877-7.472,1.953-11.077
	C247.062,398.134,244.248,382.178,235.069,369.828z"/>
<ellipse style="fill:#8B6C52;" cx="131.616" cy="382.547" rx="13.475" ry="10.75"/>
<path style="fill:#DDA46C;" d="M276.932,369.828c2.244-3.019,4.131-6.287,5.624-9.74c6.106-14.124,18.518-24.538,33.487-28.099
	c3.659-0.87,7.206-2.161,10.569-3.847c13.756-6.894,29.959-6.894,43.715,0c3.363,1.685,6.909,2.976,10.569,3.847
	c14.97,3.56,27.381,13.975,33.487,28.099c1.493,3.452,3.38,6.721,5.624,9.74c9.178,12.35,11.992,28.306,7.591,43.05
	c-1.076,3.605-1.731,7.322-1.953,11.077c-0.908,15.36-9.009,29.392-21.857,37.858l0,0c-3.141,2.07-6.032,4.496-8.615,7.23
	c-10.569,11.184-25.794,16.725-41.078,14.951l0,0c-3.736-0.434-7.51-0.434-11.246,0l0,0c-15.285,1.774-30.51-3.767-41.078-14.951
	c-2.584-2.734-5.474-5.16-8.615-7.23l0,0c-12.848-8.466-20.95-22.497-21.857-37.858l0,0c-0.221-3.755-0.877-7.472-1.953-11.077
	C264.939,398.134,267.753,382.178,276.932,369.828z"/>
<path style="fill:#F6B778;" d="M327.537,369.828c-2.244-3.019-4.131-6.287-5.624-9.74c-6.106-14.124-18.517-24.538-33.487-28.099
	c-3.659-0.87-7.206-2.161-10.569-3.847c-13.756-6.894-29.959-6.894-43.715,0c-3.363,1.685-6.909,2.976-10.569,3.847
	c-14.97,3.56-27.381,13.975-33.487,28.099c-1.493,3.452-3.38,6.721-5.624,9.74c-9.178,12.35-11.992,28.306-7.591,43.05
	c1.076,3.605,1.731,7.322,1.953,11.077c0.908,15.36,9.009,29.392,21.857,37.858l0,0c3.141,2.07,6.032,4.496,8.615,7.23
	c10.569,11.184,25.794,16.725,41.078,14.951l0,0c3.736-0.434,7.51-0.434,11.246,0l0,0c15.285,1.774,30.51-3.767,41.078-14.951
	c2.584-2.734,5.474-5.16,8.615-7.23l0,0c12.848-8.466,20.95-22.497,21.857-37.858l0,0c0.221-3.755,0.877-7.472,1.953-11.077
	C339.529,398.134,336.715,382.178,327.537,369.828z"/>
<g>
	<ellipse style="fill:#654D3B;" cx="223.127" cy="395.662" rx="16.439" ry="13.118"/>
	<ellipse style="fill:#654D3B;" cx="272.442" cy="440.145" rx="16.439" ry="13.118"/>
	<ellipse style="fill:#654D3B;" cx="373.925" cy="427.031" rx="16.439" ry="13.118"/>
</g>
<g>
	<ellipse style="fill:#8B6C52;" cx="282.239" cy="375.511" rx="13.475" ry="10.75"/>
	<ellipse style="fill:#8B6C52;" cx="163.531" cy="277.747" rx="13.475" ry="10.75"/>
</g>
<ellipse style="fill:#654D3B;" cx="223.127" cy="293.777" rx="13.475" ry="10.75"/>
<ellipse style="fill:#8B6C52;" cx="321.757" cy="288.502" rx="13.475" ry="10.75"/>
<g>
</g>
<g>
</g>
<g>
</g>
<g>
</g>
<g>
</g>
<g>
</g>
<g>
</g>
<g>
</g>
<g>
</g>
<g>
</g>
<g>
</g>
<g>
</g>
<g>
</g>
<g>
</g>
<g>
</g>
</svg>
